<?xml version="1.0" encoding="UTF-8"?>
<svg version="1.1" xmlns="http://www.w3.org/2000/svg" width="260" height="260">
<path d="M0 0 C4.62 0 9.24 0 14 0 C14 0.66 14 1.32 14 2 C14.70125 1.938125 15.4025 1.87625 16.125 1.8125 C20.6319903 2.10643415 23.83958188 3.72354007 26.875 7.0625 C28 9 28 9 28 11 C28.66 11 29.32 11 30 11 C30 11.99 30 12.98 30 14 C30.66 14 31.32 14 32 14 C35 19.75 35 19.75 35 22 C35.66 22 36.32 22 37 22 C37 22.99 37 23.98 37 25 C37.66 25 38.32 25 39 25 C42 30.75 42 30.75 42 33 C42.66 33 43.32 33 44 33 C44 33.99 44 34.98 44 36 C44.7425 35.95875 45.485 35.9175 46.25 35.875 C49.08758952 36.00398134 50.58773938 36.57051222 53 38 C53 38.66 53 39.32 53 40 C53.99 40 54.98 40 56 40 C56 40.66 56 41.32 56 42 C56.66 42 57.32 42 58 42 C63 47.35714286 63 47.35714286 63 51 C63.66 51 64.32 51 65 51 C65.33 52.65 65.66 54.3 66 56 C66.66 56 67.32 56 68 56 C68 56.99 68 57.98 68 59 C68.66 59 69.32 59 70 59 C70.83848804 60.45537568 71.67063934 61.91440373 72.5 63.375 C72.9640625 64.18710938 73.428125 64.99921875 73.90625 65.8359375 C75 68 75 68 75 70 C75.66 70 76.32 70 77 70 C80.54656572 76.116948 81.61128683 80.53814826 81.4375 87.5625 C81.44458984 88.37396484 81.45167969 89.18542969 81.45898438 90.02148438 C81.4023629 95.41794633 80.43504555 99.18567331 78 104 C77.67 104.66 77.34 105.32 77 106 C76.34 106 75.68 106 75 106 C74.7525 106.598125 74.505 107.19625 74.25 107.8125 C72.81927475 110.31626919 71.4308418 111.48072388 69 113 C68.34 113 67.68 113 67 113 C67 113.66 67 114.32 67 115 C59.50811985 117.64713098 53.02072623 119.16041452 45 119 C44.67 119.99 44.34 120.98 44 122 C44.66 122 45.32 122 46 122 C46.33 123.65 46.66 125.3 47 127 C47.66 127 48.32 127 49 127 C49 127.99 49 128.98 49 130 C49.66 130 50.32 130 51 130 C51 130.99 51 131.98 51 133 C51.66 133.33 52.32 133.66 53 134 C56 138.5 56 138.5 56 141 C56.66 141 57.32 141 58 141 C61 146.625 61 146.625 61 150 C61.66 150 62.32 150 63 150 C65.25998595 153.59462331 65.20868087 156.56595675 65.125 160.75 C65.10695312 161.92046875 65.08890625 163.0909375 65.0703125 164.296875 C65.04710937 165.18890625 65.02390625 166.0809375 65 167 C64.34 167 63.68 167 63 167 C63.103125 167.66 63.20625 168.32 63.3125 169 C62.86153781 173.32923704 60.74219867 176.65119374 58 180 C57.34 180 56.68 180 56 180 C56 180.66 56 181.32 56 182 C55.34 182 54.68 182 54 182 C54 182.66 54 183.32 54 184 C53.34 184 52.68 184 52 184 C52 184.66 52 185.32 52 186 C51.01 186 50.02 186 49 186 C49 186.66 49 187.32 49 188 C39.88488501 191.50073257 31.64702205 192.60783701 22 191 C22 191.66 22 192.32 22 193 C20.02 193.33 18.04 193.66 16 194 C16.061875 194.94875 16.12375 195.8975 16.1875 196.875 C16.21810541 201.84327831 14.57575543 206.3383902 13 211 C12.34 211 11.68 211 11 211 C10.731875 211.804375 10.46375 212.60875 10.1875 213.4375 C9.795625 214.283125 9.40375 215.12875 9 216 C8.01 216.33 7.02 216.66 6 217 C6 217.66 6 218.32 6 219 C5.34 219 4.68 219 4 219 C4 219.66 4 220.32 4 221 C1.09451118 223.04169485 -0.40142046 224 -4 224 C-4 224.66 -4 225.32 -4 226 C-12.18030985 228.84532517 -19.81969015 228.84532517 -28 226 C-28 225.34 -28 224.68 -28 224 C-28.53625 223.938125 -29.0725 223.87625 -29.625 223.8125 C-33.20372005 222.58820104 -35.25995524 220.61549727 -38 218 C-38 217.01 -38 216.02 -38 215 C-38.66 215 -39.32 215 -40 215 C-40.33 213.35 -40.66 211.7 -41 210 C-41.66 210 -42.32 210 -43 210 C-43.33 209.34 -43.66 208.68 -44 208 C-44.66 208 -45.32 208 -46 208 C-45.67 206.68 -45.34 205.36 -45 204 C-45.66 204 -46.32 204 -47 204 C-47.33 202.35 -47.66 200.7 -48 199 C-48.66 199 -49.32 199 -50 199 C-50 198.01 -50 197.02 -50 196 C-50.57234375 196.16242188 -51.1446875 196.32484375 -51.734375 196.4921875 C-58.03877738 197.90524321 -64.68355625 196.91875545 -71 196 C-71.33 199.63 -71.66 203.26 -72 207 C-72.33 207 -72.66 207 -73 207 C-73.33 208.65 -73.66 210.3 -74 212 C-74.66 212 -75.32 212 -76 212 C-76.185625 213.1446875 -76.185625 213.1446875 -76.375 214.3125 C-77 217 -77 217 -79 220 C-79.66 220 -80.32 220 -81 220 C-81 220.66 -81 221.32 -81 222 C-81.66 222 -82.32 222 -83 222 C-83 222.66 -83 223.32 -83 224 C-83.66 224 -84.32 224 -85 224 C-85 224.66 -85 225.32 -85 226 C-88.36683915 228.43160605 -89.73350364 229 -94 229 C-94 229.66 -94 230.32 -94 231 C-96.64 231.33 -99.28 231.66 -102 232 C-102 232.33 -102 232.66 -102 233 C-104.31 233 -106.62 233 -109 233 C-109 232.67 -109 232.34 -109 232 C-110.98 231.67 -112.96 231.34 -115 231 C-115 230.34 -115 229.68 -115 229 C-115.721875 228.938125 -116.44375 228.87625 -117.1875 228.8125 C-120.8997565 227.74007034 -122.51221068 225.90242087 -125 223 C-125.33 222.01 -125.66 221.02 -126 220 C-126.66 220 -127.32 220 -128 220 C-128 219.01 -128 218.02 -128 217 C-128.66 217 -129.32 217 -130 217 C-133 211.25 -133 211.25 -133 209 C-133.66 209 -134.32 209 -135 209 C-135 208.01 -135 207.02 -135 206 C-135.66 206 -136.32 206 -137 206 C-137.391875 205.195625 -137.78375 204.39125 -138.1875 203.5625 C-139.8525473 200.59877264 -139.8525473 200.59877264 -143.6875 200.1875 C-144.780625 200.125625 -145.87375 200.06375 -147 200 C-147 199.34 -147 198.68 -147 198 C-147.99 198.33 -148.98 198.66 -150 199 C-150 198.34 -150 197.68 -150 197 C-150.99 197 -151.98 197 -153 197 C-153 196.34 -153 195.68 -153 195 C-153.99 194.67 -154.98 194.34 -156 194 C-159.16675225 191.59326829 -159.91979234 188.73918037 -161 185 C-161.66 185 -162.32 185 -163 185 C-166 179.25 -166 179.25 -166 177 C-166.66 177 -167.32 177 -168 177 C-169.94174757 172.33980583 -169.94174757 172.33980583 -170.375 169.8125 C-170.58125 169.214375 -170.7875 168.61625 -171 168 C-171.62648437 167.731875 -172.25296875 167.46375 -172.8984375 167.1875 C-176.45781954 165.17625067 -176.99831141 161.94256576 -178.2421875 158.2109375 C-180.17144806 150.03644173 -179.49543305 141.95419284 -177 134 C-176.34 134 -175.68 134 -175 134 C-175 133.01 -175 132.02 -175 131 C-174.34 131 -173.68 131 -173 131 C-172.7525 130.38125 -172.505 129.7625 -172.25 129.125 C-170.79371361 126.64931313 -169.62187494 126.04874998 -167 125 C-167 124.34 -167 123.68 -167 123 C-160.36414602 120.08022425 -154.45488903 117.82376872 -147.125 117.375 C-145.39636719 117.26285156 -145.39636719 117.26285156 -143.6328125 117.1484375 C-142.76398438 117.09945312 -141.89515625 117.05046875 -141 117 C-142.32 115.35 -143.64 113.7 -145 112 C-144.67 111.34 -144.34 110.68 -144 110 C-144.99 109.67 -145.98 109.34 -147 109 C-147 107.68 -147 106.36 -147 105 C-147.66 105 -148.32 105 -149 105 C-149 104.01 -149 103.02 -149 102 C-149.66 102 -150.32 102 -151 102 C-151.28875 101.38125 -151.5775 100.7625 -151.875 100.125 C-152.93720042 97.86674235 -152.93720042 97.86674235 -155 96 C-154.67 95.34 -154.34 94.68 -154 94 C-154.66 94 -155.32 94 -156 94 C-159 88.375 -159 88.375 -159 85 C-159.66 85 -160.32 85 -161 85 C-161 82.36 -161 79.72 -161 77 C-161.66 77 -162.32 77 -163 77 C-162.85175781 76.42894531 -162.70351562 75.85789062 -162.55078125 75.26953125 C-162.19831151 73.81715592 -161.87974624 72.35586846 -161.60546875 70.88671875 C-160.58553506 65.52015174 -158.9391304 61.60463762 -156 57 C-155.34 57 -154.68 57 -154 57 C-154 56.34 -154 55.68 -154 55 C-152.6875 53.375 -152.6875 53.375 -151 52 C-150.01 52 -149.02 52 -148 52 C-148 51.34 -148 50.68 -148 50 C-144.28026121 47.15549386 -141.62609198 46.6772494 -137 47 C-137 46.34 -137 45.68 -137 45 C-127.1 44.505 -127.1 44.505 -117 44 C-116.67 42.35 -116.34 40.7 -116 39 C-115.34 39 -114.68 39 -114 39 C-114.04125 38.030625 -114.0825 37.06125 -114.125 36.0625 C-114.06328218 28.4249201 -112.72976139 22.98456985 -107.33984375 17.41015625 C-105.88828366 16.01979754 -105.88828366 16.01979754 -105 14 C-104.34 14 -103.68 14 -103 14 C-103 13.34 -103 12.68 -103 12 C-101.20963542 10.99088542 -99.41927083 9.98177083 -97.62890625 8.97265625 C-96.02121854 8.1027487 -96.02121854 8.1027487 -95 7 C-93.33382885 6.95936168 -91.66611905 6.957279 -90 7 C-90 6.34 -90 5.68 -90 5 C-87.08308475 4.94598305 -84.16717276 4.90631934 -81.25 4.875 C-80.425 4.85824219 -79.6 4.84148438 -78.75 4.82421875 C-77.95078125 4.81777344 -77.1515625 4.81132812 -76.328125 4.8046875 C-75.5949707 4.79421387 -74.86181641 4.78374023 -74.10644531 4.77294922 C-71.70103924 5.03222456 -70.08748506 5.80774075 -68 7 C-68 7.66 -68 8.32 -68 9 C-67.13375 9.1546875 -67.13375 9.1546875 -66.25 9.3125 C-63.61872985 10.11649921 -62.01311907 11.13067515 -60 13 C-60 13.99 -60 14.98 -60 16 C-59.34 16 -58.68 16 -58 16 C-57.505 18.475 -57.505 18.475 -57 21 C-56.34 21 -55.68 21 -55 21 C-55 21.99 -55 22.98 -55 24 C-54.34 24 -53.68 24 -53 24 C-53 24.99 -53 25.98 -53 27 C-52.34 27 -51.68 27 -51 27 C-50.67 28.65 -50.34 30.3 -50 32 C-49.34 32 -48.68 32 -48 32 C-48 32.99 -48 33.98 -48 35 C-47.34 35 -46.68 35 -46 35 C-45.67 36.65 -45.34 38.3 -45 40 C-36.585 39.505 -36.585 39.505 -28 39 C-28 37.68 -28 36.36 -28 35 C-27.34 35 -26.68 35 -26 35 C-26 32.36 -26 29.72 -26 27 C-25.34 27 -24.68 27 -24 27 C-24.33 26.01 -24.66 25.02 -25 24 C-23.78515625 21.08203125 -23.78515625 21.08203125 -22.0625 17.8125 C-21.49660156 16.72582031 -20.93070313 15.63914062 -20.34765625 14.51953125 C-19.90292969 13.68808594 -19.45820313 12.85664063 -19 12 C-18.34 12 -17.68 12 -17 12 C-16.67 11.01 -16.34 10.02 -16 9 C-15.34 9 -14.68 9 -14 9 C-14 8.34 -14 7.68 -14 7 C-13.34 7 -12.68 7 -12 7 C-12 6.34 -12 5.68 -12 5 C-7.77050005 2.58314288 -4.87664009 1.65166856 0 2 C0 1.34 0 0.68 0 0 Z M2 14 C2 14.66 2 15.32 2 16 C0.35 16 -1.3 16 -3 16 C-3 16.66 -3 17.32 -3 18 C-3.99 18.33 -4.98 18.66 -6 19 C-6 19.66 -6 20.32 -6 21 C-6.66 21 -7.32 21 -8 21 C-8 22.65 -8 24.3 -8 26 C-8.66 26 -9.32 26 -10 26 C-10.50921328 28.18537367 -11.00694437 30.37342431 -11.5 32.5625 C-11.7784375 33.78066406 -12.056875 34.99882813 -12.34375 36.25390625 C-12.98637554 39.92222707 -13.11474823 43.28502603 -13 47 C-13.66 47 -14.32 47 -15 47 C-15.17917969 47.62390625 -15.35835937 48.2478125 -15.54296875 48.890625 C-17.38721395 51.56057784 -19.04618493 51.83493644 -22.15625 52.41845703 C-22.8678125 52.52786621 -23.579375 52.63727539 -24.3125 52.75 C-25.04855469 52.87358887 -25.78460938 52.99717773 -26.54296875 53.12451172 C-35.39913522 54.45036222 -44.30172162 54.21750211 -53.22851562 53.93408203 C-55.02662333 53.79984863 -55.02662333 53.79984863 -56 55 C-58.28812814 55.15215174 -60.58199128 55.22186492 -62.875 55.25 C-64.13054687 55.27578125 -65.38609375 55.3015625 -66.6796875 55.328125 C-70 55 -70 55 -71.93359375 53.90234375 C-73.54532376 51.02720633 -73.28436479 48.57361448 -73.1875 45.3125 C-73.14689453 43.54326172 -73.14689453 43.54326172 -73.10546875 41.73828125 C-73.07066406 40.83464844 -73.03585938 39.93101563 -73 39 C-72.34 39 -71.68 39 -71 39 C-70.21420409 30.01040006 -70.21420409 30.01040006 -72.875 21.6875 C-77.22422782 19.33891698 -81.07737773 18.72344819 -86 19 C-90.98578528 20.75425778 -94.26366991 23.48232136 -97.25 27.8125 C-98.30936621 30.90231813 -98.12450771 33.76279943 -98 37 C-98.66 37 -99.32 37 -100 37 C-100 39.64 -100 42.28 -100 45 C-100.66 45 -101.32 45 -102 45 C-102.18175781 46.06541016 -102.18175781 46.06541016 -102.3671875 47.15234375 C-102.53476563 48.07144531 -102.70234375 48.99054687 -102.875 49.9375 C-103.11863281 51.31228516 -103.11863281 51.31228516 -103.3671875 52.71484375 C-103.57601562 53.46894531 -103.78484375 54.22304687 -104 55 C-104.99 55.495 -104.99 55.495 -106 56 C-106 56.66 -106 57.32 -106 58 C-106.72445312 57.98839844 -107.44890625 57.97679687 -108.1953125 57.96484375 C-114.09085239 57.87957755 -114.09085239 57.87957755 -119.9375 58.5 C-124.0131277 59.1654086 -127.97759565 58.97240683 -132.09765625 58.83984375 C-135.14187431 59.00782886 -137.25485981 59.71557661 -140 61 C-140 61.66 -140 62.32 -140 63 C-141.485 63.495 -141.485 63.495 -143 64 C-146.02651823 67.02651823 -146.90356819 69.81871038 -147.25 74.0625 C-147.00595115 76.93007395 -146.49231687 78.57498508 -145 81 C-144.34 81 -143.68 81 -143 81 C-143 81.66 -143 82.32 -143 83 C-141.68 83 -140.36 83 -139 83 C-139 83.66 -139 84.32 -139 85 C-130.75 85 -122.5 85 -114 85 C-114 85.66 -114 86.32 -114 87 C-113.34 87 -112.68 87 -112 87 C-112.875 94.875 -112.875 94.875 -114 96 C-114.144375 97.03125 -114.28875 98.0625 -114.4375 99.125 C-114.98593552 102.90311136 -115.95287517 106.33506309 -117 110 C-117.36950465 112.32787927 -117.71352467 114.66045145 -118 117 C-118.33 117 -118.66 117 -119 117 C-119.0825 118.03125 -119.165 119.0625 -119.25 120.125 C-120.12018 124.62092998 -120.88364826 126.6289687 -124 130 C-127.56905218 131.04629945 -131.11026737 131.20528403 -134.8125 131.375 C-135.78509766 131.44332031 -136.75769531 131.51164062 -137.75976562 131.58203125 C-142.84520428 131.91945372 -147.90458102 132.07106582 -153 132 C-153 132.66 -153 133.32 -153 134 C-154.65 134 -156.3 134 -158 134 C-158 134.66 -158 135.32 -158 136 C-159.98 136.99 -159.98 136.99 -162 138 C-162 138.99 -162 139.98 -162 141 C-162.66 141 -163.32 141 -164 141 C-164.08107583 142.93681161 -164.13922475 144.8745934 -164.1875 146.8125 C-164.22230469 147.89144531 -164.25710937 148.97039062 -164.29296875 150.08203125 C-164.24241425 152.98218538 -164.24241425 152.98218538 -162.67578125 154.88671875 C-160.91883971 156.27667764 -160.91883971 156.27667764 -158 156 C-158 156.66 -158 157.32 -158 158 C-157.22285645 158.01981934 -156.44571289 158.03963867 -155.64501953 158.06005859 C-152.13799309 158.15507009 -148.63158206 158.26484559 -145.125 158.375 C-143.90167969 158.4059375 -142.67835938 158.436875 -141.41796875 158.46875 C-140.25136719 158.50742188 -139.08476562 158.54609375 -137.8828125 158.5859375 C-136.80402832 158.6173584 -135.72524414 158.6487793 -134.61376953 158.68115234 C-132 159 -132 159 -130 161 C-129.59952556 163.32275177 -129.2602896 165.65739357 -129 168 C-129.66 168 -130.32 168 -131 168 C-131 170.64 -131 173.28 -131 176 C-131.66 176 -132.32 176 -133 176 C-133 177.98 -133 179.96 -133 182 C-132.34 182 -131.68 182 -131 182 C-130.8453125 182.9590625 -130.8453125 182.9590625 -130.6875 183.9375 C-130.460625 184.618125 -130.23375 185.29875 -130 186 C-129.01 186.33 -128.02 186.66 -127 187 C-127 187.66 -127 188.32 -127 189 C-124.89611431 189.05402274 -122.79183286 189.09280256 -120.6875 189.125 C-119.51574219 189.14820313 -118.34398437 189.17140625 -117.13671875 189.1953125 C-113.63261382 188.97712415 -112.1594035 187.96616958 -109.5 185.75 C-105.28723579 180.83510842 -104.05067355 175.33419351 -104 169 C-104.33 168.34 -104.66 167.68 -105 167 C-104.01 167.33 -103.02 167.66 -102 168 C-101.814375 166.4221875 -101.814375 166.4221875 -101.625 164.8125 C-101.08859218 161.54041229 -100.36119965 158.99463924 -99 156 C-97.68 156 -96.36 156 -95 156 C-95 155.34 -95 154.68 -95 154 C-78.17 154 -61.34 154 -44 154 C-43.67 154.66 -43.34 155.32 -43 156 C-42.34 156 -41.68 156 -41 156 C-41 158.64 -41 161.28 -41 164 C-41.66 164 -42.32 164 -43 164 C-43.19561869 166.0825867 -43.38119313 168.16611856 -43.5625 170.25 C-43.66691406 171.41015625 -43.77132812 172.5703125 -43.87890625 173.765625 C-44.02779324 177.50228221 -44.02779324 177.50228221 -43 181 C-38.16946192 184.47798742 -35.06677187 185.57233697 -29 185 C-26.68963085 184.57145005 -26.68963085 184.57145005 -25 184 C-25 183.34 -25 182.68 -25 182 C-24.071875 181.814375 -24.071875 181.814375 -23.125 181.625 C-20.80879168 181.12802644 -20.80879168 181.12802644 -19 179 C-19 178.01 -19 177.02 -19 176 C-18.34 176 -17.68 176 -17 176 C-15.34994747 169.67998749 -13.82723208 163.47998465 -13 157 C-12.67 156.01 -12.34 155.02 -12 154 C-11.34 153.67 -10.68 153.34 -10 153 C-10 152.34 -10 151.68 -10 151 C-7.03 151 -4.06 151 -1 151 C-1 150.34 -1 149.68 -1 149 C6.59 149 14.18 149 22 149 C22 148.34 22 147.68 22 147 C22.556875 146.938125 23.11375 146.87625 23.6875 146.8125 C27.39957114 145.50825879 28.72986339 144.27908622 31 141 C31.70571875 136.5808564 31.95197726 132.38469527 31 128 C28.09329027 124.97802419 25.80732385 123.51414677 21.625 123.25 C20.34302734 123.16105469 20.34302734 123.16105469 19.03515625 123.0703125 C14.09551513 122.95588066 9.15970413 123.08704991 4.22265625 123.2578125 C1 123 1 123 -0.89453125 121.6875 C-2.51115341 119.21972342 -2.74751895 116.90353209 -3 114 C-2.67 113.67 -2.34 113.34 -2 113 C-1.835 111.845 -1.67 110.69 -1.5 109.5 C-1 106 -1 106 0 105 C0.04092937 102.66702567 0.04241723 100.33294775 0 98 C0.66 98 1.32 98 2 98 C1.938125 97.175 1.87625 96.35 1.8125 95.5 C2.12159677 89.73019365 4.3163986 83.50217949 8 79 C11.1875 78.1875 11.1875 78.1875 14 78 C14 77.34 14 76.68 14 76 C15.08885498 76.02356567 15.08885498 76.02356567 16.19970703 76.04760742 C19.50805788 76.11020355 22.81628381 76.14906912 26.125 76.1875 C27.26710937 76.21263672 28.40921875 76.23777344 29.5859375 76.26367188 C37.74732573 76.42908357 37.74732573 76.42908357 45 73 C46.42557356 70.44278263 46.42557356 70.44278263 47 68 C47.66 68 48.32 68 49 68 C50.49084832 63.52745503 50.49084832 59.47254497 49 55 C48.34 55 47.68 55 47 55 C47 54.01 47 53.02 47 52 C44.23382437 50.61691219 41.98982 50.88789804 38.8984375 50.90234375 C37.68671875 50.90556641 36.475 50.90878906 35.2265625 50.91210938 C33.95554688 50.92048828 32.68453125 50.92886719 31.375 50.9375 C29.456875 50.94426758 29.456875 50.94426758 27.5 50.95117188 C24.33328708 50.96298797 21.16666644 50.97946185 18 51 C18 50.34 18 49.68 18 49 C17.34 49 16.68 49 16 49 C16 48.01 16 47.02 16 46 C15.34 46 14.68 46 14 46 C14 44.35 14 42.7 14 41 C14.66 41 15.32 41 16 41 C16.2165625 39.2984375 16.2165625 39.2984375 16.4375 37.5625 C17 34 17 34 18 33 C19.00777637 28.0730933 19.81335411 23.40351079 17 19 C13.4691249 15.09965209 13.4691249 15.09965209 8.60546875 13.6875 C6.38115686 13.6875 4.21252065 13.77874793 2 14 Z " fill="#FCFCFB" transform="translate(179,11)"/>
<path d="M0 0 C1.04027344 -0.02900391 2.08054688 -0.05800781 3.15234375 -0.08789062 C4.14878906 -0.09626953 5.14523438 -0.10464844 6.171875 -0.11328125 C7.07518555 -0.12786377 7.97849609 -0.14244629 8.90917969 -0.1574707 C11.25 0.3125 11.25 0.3125 13.06274414 2.13696289 C14.76782389 5.26136462 14.32226845 7.56460498 13.9375 11.0625 C13.81761719 12.23296875 13.69773437 13.4034375 13.57421875 14.609375 C13.46722656 15.50140625 13.36023438 16.3934375 13.25 17.3125 C12.59 17.3125 11.93 17.3125 11.25 17.3125 C11.25 19.9525 11.25 22.5925 11.25 25.3125 C10.59 25.3125 9.93 25.3125 9.25 25.3125 C9.2809375 26.17101562 9.311875 27.02953125 9.34375 27.9140625 C9.24740941 31.40640872 8.64835684 34.31866185 7.75 37.6875 C7.4715625 38.74710938 7.193125 39.80671875 6.90625 40.8984375 C6.6896875 41.69507813 6.473125 42.49171875 6.25 43.3125 C5.59 43.3125 4.93 43.3125 4.25 43.3125 C4.25 43.9725 4.25 44.6325 4.25 45.3125 C-1.46787575 49.08491543 -6.88434766 48.62747836 -13.5625 48.4375 C-15.65226355 48.39435977 -17.7421116 48.35507764 -19.83203125 48.3203125 C-20.75218018 48.29598145 -21.6723291 48.27165039 -22.62036133 48.24658203 C-24.73448891 48.06869159 -24.73448891 48.06869159 -25.75 49.3125 C-43.6367543 51.95152932 -43.6367543 51.95152932 -50.75 49.3125 C-52.82478454 47.74937047 -53.63274785 46.89531216 -54.1484375 44.33203125 C-54.09736352 39.52256449 -53.40992587 35.88633868 -51.54296875 31.46875 C-50.30772887 28.10987112 -49.80865909 24.66547266 -49.22265625 21.14453125 C-48.74643272 18.29112578 -48.19848244 15.46032926 -47.625 12.625 C-47.45742187 11.79613281 -47.28984375 10.96726562 -47.1171875 10.11328125 C-46.99601562 9.51902344 -46.87484375 8.92476562 -46.75 8.3125 C-46.09 8.3125 -45.43 8.3125 -44.75 8.3125 C-44.6675 7.69375 -44.585 7.075 -44.5 6.4375 C-43.75 4.3125 -43.75 4.3125 -41.99926758 3.20336914 C-39.53398385 2.22694232 -37.65589019 2.0149569 -35.01171875 1.93359375 C-33.65723633 1.88235352 -33.65723633 1.88235352 -32.27539062 1.83007812 C-31.33888672 1.80365234 -30.40238281 1.77722656 -29.4375 1.75 C-22.35478395 1.54705956 -22.35478395 1.54705956 -15.31640625 0.8046875 C-10.21075964 0.10007472 -5.14840146 0.04856983 0 0 Z " fill="#FDFCFC" transform="translate(140.75,90.6875)"/>
<path d="M0 0 C1.66949355 0.03767954 3.33759288 0.15428796 5 0.3125 C6.36125 0.43044922 6.36125 0.43044922 7.75 0.55078125 C8.4925 0.69902344 9.235 0.84726563 10 1 C10.33 1.66 10.66 2.32 11 3 C-8.0985551 5.54647401 -8.0985551 5.54647401 -14 2 C-13.07316406 1.93941406 -12.14632812 1.87882813 -11.19140625 1.81640625 C-9.39509766 1.69072266 -9.39509766 1.69072266 -7.5625 1.5625 C-5.77005859 1.44068359 -5.77005859 1.44068359 -3.94140625 1.31640625 C-1.11429756 1.32343886 -1.11429756 1.32343886 0 0 Z " fill="#EBE7E6" transform="translate(104,137)"/>
<path d="M0 0 C-1.09765625 1.48046875 -1.09765625 1.48046875 -3 3 C-5.99609375 3.36328125 -5.99609375 3.36328125 -9.4375 3.3125 C-10.57058594 3.30863281 -11.70367187 3.30476562 -12.87109375 3.30078125 C-15.81574545 3.01771236 -17.51323073 2.53360955 -20 1 C-17.79187393 0.83060951 -15.58348776 0.66460778 -13.375 0.5 C-12.14523438 0.4071875 -10.91546875 0.314375 -9.6484375 0.21875 C-6.41962143 0.02515931 -3.23321325 -0.03979339 0 0 Z " fill="#EFEBEA" transform="translate(142,136)"/>
<path d="M0 0 C0.66 0 1.32 0 2 0 C0.52278578 3.45201639 -1.43794001 5.64961936 -4.125 8.25 C-4.84945312 8.95640625 -5.57390625 9.6628125 -6.3203125 10.390625 C-6.87460938 10.92171875 -7.42890625 11.4528125 -8 12 C-8 9 -8 9 -7 7 C-6.34 7 -5.68 7 -5 7 C-4.67 6.01 -4.34 5.02 -4 4 C-3.34 4 -2.68 4 -2 4 C-2 3.34 -2 2.68 -2 2 C-1.34 2 -0.68 2 0 2 C0 1.34 0 0.68 0 0 Z " fill="#F1EDEC" transform="translate(167,16)"/>
<path d="M0 0 C0.66 0.33 1.32 0.66 2 1 C0.90344712 2.31886772 -0.20253423 3.62990057 -1.3125 4.9375 C-1.92738281 5.66839844 -2.54226562 6.39929688 -3.17578125 7.15234375 C-5 9 -5 9 -8 10 C-8 9.34 -8 8.68 -8 8 C-7.34 8 -6.68 8 -6 8 C-5.7525 7.38125 -5.505 6.7625 -5.25 6.125 C-3.79371361 3.64931313 -2.62187494 3.04874998 0 2 C0 1.34 0 0.68 0 0 Z " fill="#EFEBEA" transform="translate(12,134)"/>
<path d="M0 0 C1.9078584 3.1749094 2.1609041 5.10585211 1.625 8.75 C1.51414063 9.54921875 1.40328125 10.3484375 1.2890625 11.171875 C1.19367188 11.77515625 1.09828125 12.3784375 1 13 C0.67 13 0.34 13 0 13 C-1.28571429 4.57142857 -1.28571429 4.57142857 0 0 Z " fill="#E6E0DF" transform="translate(210,139)"/>
<path d="M0 0 C0.99 0.33 1.98 0.66 3 1 C2.34 1 1.68 1 1 1 C0.7525 1.61875 0.505 2.2375 0.25 2.875 C-1.20628639 5.35068687 -2.37812506 5.95125002 -5 7 C-4.1875 5.0625 -4.1875 5.0625 -3 3 C-2.01 2.67 -1.02 2.34 0 2 C0 1.34 0 0.68 0 0 Z " fill="#F1EEED" transform="translate(253,116)"/>
</svg>
