<?xml version="1.0" standalone="no"?>
<!DOCTYPE svg PUBLIC "-//W3C//DTD SVG 20010904//EN"
 "http://www.w3.org/TR/2001/REC-SVG-20010904/DTD/svg10.dtd">
<svg version="1.0" xmlns="http://www.w3.org/2000/svg"
 width="260.000000pt" height="260.000000pt" viewBox="0 0 260.000000 260.000000"
 preserveAspectRatio="xMidYMid meet">

<g transform="translate(0.000000,260.000000) scale(0.100000,-0.100000)"
fill="#000000" stroke="none">
<path d="M1803 2430 c-84 -17 -172 -81 -208 -150 -9 -17 -27 -74 -40 -127 -14
-53 -27 -99 -31 -102 -3 -3 -46 -8 -95 -9 l-88 -4 -70 109 c-108 169 -117 180
-168 209 -64 38 -172 41 -248 6 -100 -46 -150 -116 -185 -259 -12 -51 -27 -96
-34 -101 -6 -5 -57 -12 -113 -15 -131 -8 -186 -30 -253 -104 -81 -89 -99 -188
-50 -282 10 -21 59 -102 109 -180 50 -78 89 -146 86 -150 -2 -5 -45 -11 -95
-14 -134 -10 -221 -60 -275 -159 -25 -44 -30 -64 -30 -123 0 -68 2 -73 59
-165 32 -52 75 -122 95 -155 58 -97 116 -150 184 -170 58 -17 59 -17 124 -118
77 -121 105 -152 158 -180 48 -25 152 -29 205 -7 107 43 167 114 202 241 27
97 25 96 164 98 94 1 83 10 174 -134 34 -55 75 -110 89 -123 96 -83 271 -64
373 42 50 50 63 76 84 162 9 38 21 74 26 80 4 6 58 14 119 18 132 9 193 31
256 95 58 59 83 117 83 191 0 72 -11 95 -133 290 -47 74 -83 138 -81 141 2 4
41 10 86 13 147 13 242 75 294 193 45 101 36 131 -105 358 -99 159 -134 198
-199 221 -47 17 -52 22 -137 157 -97 153 -134 189 -216 206 -56 12 -57 12
-116 1z m116 -108 c75 -37 87 -90 55 -226 -26 -110 -25 -110 127 -116 136 -5
159 -13 189 -63 37 -60 22 -134 -37 -188 -46 -43 -67 -49 -191 -55 -152 -8
-187 -16 -201 -52 -13 -32 -81 -315 -81 -336 0 -8 7 -21 15 -30 12 -12 35 -14
123 -9 123 7 159 -4 192 -60 39 -63 22 -137 -45 -195 -44 -39 -49 -40 -212
-50 -102 -6 -137 -12 -151 -25 -12 -11 -27 -55 -42 -117 -25 -114 -49 -155
-105 -187 -114 -65 -236 8 -221 131 20 154 20 153 -3 161 -38 12 -483 -14
-507 -30 -16 -10 -28 -41 -49 -126 -25 -98 -33 -117 -65 -149 -73 -73 -182
-75 -236 -4 -25 32 -26 39 -20 102 3 37 9 84 12 106 5 27 2 41 -7 47 -8 5 -63
9 -122 9 -125 0 -167 13 -197 62 -25 42 -25 81 0 133 36 75 99 105 224 106
107 0 177 13 192 33 18 26 86 319 82 358 l-3 33 -120 5 c-130 5 -171 19 -197
68 -20 37 -13 106 13 144 46 65 93 86 199 88 105 2 178 14 196 32 9 8 29 72
46 142 33 139 52 172 119 206 98 50 219 -8 219 -106 0 -17 -9 -66 -20 -109
-11 -43 -17 -87 -14 -97 6 -19 49 -42 63 -34 3 2 74 7 156 11 227 10 307 20
322 41 7 9 25 70 40 135 30 134 57 178 127 210 52 23 92 24 135 1z"/>
<path d="M1200 1628 c-144 -7 -179 -12 -200 -27 -20 -15 -31 -44 -62 -167 -38
-154 -46 -218 -27 -230 14 -8 156 -6 353 6 145 9 152 10 174 35 12 14 22 34
22 43 0 9 16 81 35 160 19 79 35 147 35 152 0 5 -7 16 -16 24 -17 18 -36 18
-314 4z"/>
</g>
</svg>
