<?xml version="1.0" encoding="UTF-8"?>
<svg version="1.1" xmlns="http://www.w3.org/2000/svg" width="1280" height="1280">
<path d="M0 0 C13.85235788 13.04727408 23.46902255 28.6949213 33.06640625 44.984375 C36.02624517 49.99794791 39.09303425 54.91942891 42.2890625 59.78515625 C46.3514332 65.97352865 50.2850912 72.23012459 54.1640625 78.53515625 C58.13144027 84.98156168 62.15082361 91.38453848 66.2890625 97.72265625 C69.49927117 102.63969715 72.63999244 107.58770251 75.68310547 112.61010742 C77.04033414 114.84975467 78.40985691 117.08150358 79.78125 119.3125 C81.28876946 121.76651665 82.77712017 124.22771967 84.23535156 126.71142578 C85.85073442 129.46185065 87.50444241 132.18625222 89.1640625 134.91015625 C89.6492334 135.7606958 90.1344043 136.61123535 90.63427734 137.48754883 C94.7778506 144.16465588 99.1892689 146.09213842 106.6640625 148.03515625 C107.39077148 148.24446777 108.11748047 148.4537793 108.86621094 148.66943359 C110.17805004 149.04383157 111.49326112 149.40664115 112.81176758 149.75683594 C127.69388512 153.73324072 140.87172403 160.01818365 152.6640625 170.03515625 C153.65921875 170.87949219 154.654375 171.72382813 155.6796875 172.59375 C168.36793663 183.65608221 177.51806079 196.37838233 186.23828125 210.70117188 C187.96827436 213.5331469 189.73293047 216.34223603 191.5012207 219.15039062 C195.40210173 225.34951934 199.23063024 231.59142963 203.0390625 237.84765625 C208.8041782 247.31353198 214.72591389 256.67720177 220.6640625 266.03515625 C231.72399938 283.47777979 242.63007711 301.01084868 253.36880493 318.65310669 C254.09151929 319.84020271 254.81478084 321.02696582 255.53866577 322.21334839 C259.42142623 328.57999817 263.25648382 334.97461107 267.00390625 341.421875 C267.64062256 342.51330811 268.27733887 343.60474121 268.93334961 344.72924805 C274.00345336 354.41386856 276.3625331 365.29049659 278.8671875 375.8671875 C279.51149229 378.90961136 279.51149229 378.90961136 280.6640625 381.03515625 C280.93558979 385.07103922 280.89576397 389.11618203 280.9140625 393.16015625 C280.9346875 394.27648437 280.9553125 395.3928125 280.9765625 396.54296875 C281.0035755 402.26972463 280.76371173 406.93883659 278.43945312 412.19726562 C277.0826084 415.41336357 276.50934201 418.81892049 275.7890625 422.22265625 C268.44491764 454.55232547 248.72983042 482.0813615 222.6640625 502.03515625 C221.18486328 503.21658203 221.18486328 503.21658203 219.67578125 504.421875 C187.85016707 529.09610366 147.74004541 534.55267689 108.7890625 536.09765625 C105.0415118 536.25166957 101.29413802 536.40945548 97.546875 536.5703125 C96.66791565 536.60774567 95.7889563 536.64517883 94.88336182 536.68374634 C88.79111341 536.95473777 82.72645005 537.3580977 76.6640625 538.03515625 C78.80911112 542.14649944 81.09643409 545.62770087 84.1015625 549.16015625 C90.20197348 556.62751117 94.9609236 564.99714445 99.95410156 573.22412109 C102.68754898 577.71768385 105.45682312 582.18890456 108.2265625 586.66015625 C108.76643799 587.53357666 109.30631348 588.40699707 109.86254883 589.30688477 C112.90443258 594.22168088 115.97688315 599.11526268 119.07983398 603.99169922 C124.2375863 612.09809461 129.24064821 620.28418439 134.1640625 628.53515625 C141.58106654 640.95997437 149.25356851 653.20049199 157.09765625 665.359375 C179.82105488 700.66040423 179.82105488 700.66040423 185.6640625 718.03515625 C185.91292206 718.75135635 186.16178162 719.46755646 186.41818237 720.20545959 C188.42696192 726.34132348 189.14370512 731.86458716 189.16796875 738.30078125 C189.17795395 739.25547302 189.18793915 740.21016479 189.19822693 741.19378662 C189.21332408 743.20727253 189.22045535 745.22083255 189.2199707 747.234375 C189.2264585 750.23702451 189.2808239 753.23622562 189.33789062 756.23828125 C189.64564819 791.56289755 173.23497593 820.74008797 149.6640625 846.03515625 C149.19645508 846.54127441 148.72884766 847.04739258 148.24707031 847.56884766 C137.90441185 858.65984102 126.12540118 868.02368781 112.6640625 875.03515625 C111.57222656 875.6075 110.48039062 876.17984375 109.35546875 876.76953125 C102.06774225 880.37747471 94.63673918 883.2412157 86.9140625 885.78515625 C86.08277832 886.06681641 85.25149414 886.34847656 84.39501953 886.63867188 C68.79143622 891.56828651 52.27213085 892.59614233 36.0390625 893.59765625 C34.13823914 893.72144647 32.23744206 893.84564073 30.33666992 893.97021484 C15.16693903 894.94766253 -0.01331152 895.72229808 -15.19970703 896.38891602 C-16.01741074 896.42564926 -16.83511444 896.46238251 -17.67759705 896.50022888 C-19.18119205 896.56734836 -20.68489938 896.63202712 -22.18873596 896.6934967 C-23.54427623 896.75413139 -24.89938842 896.82543429 -26.25375366 896.90826416 C-27.75004811 896.99945108 -29.24811963 897.06303365 -30.74649048 897.10882568 C-35.60113482 897.29355154 -35.60113482 897.29355154 -39.28393555 900.16870117 C-40.46763637 903.39400433 -41.38568532 906.55082016 -42.16796875 909.8984375 C-42.32497757 910.558936 -42.48198639 911.21943451 -42.64375305 911.89994812 C-42.97889273 913.31401315 -43.31020408 914.72899009 -43.63800049 916.14477539 C-44.15452856 918.37394329 -44.68190947 920.60028877 -45.21240234 922.82617188 C-45.92559387 925.8216006 -46.63540771 928.81778604 -47.34130859 931.81494141 C-57.83718025 976.36866605 -74.67691889 1017.15861058 -114.3984375 1043.59765625 C-116.36047431 1044.7725802 -118.34289875 1045.91362548 -120.3359375 1047.03515625 C-121.05604004 1047.44620605 -121.77614258 1047.85725586 -122.51806641 1048.28076172 C-155.63124228 1067.01541053 -195.85174361 1076.00711198 -233.30029297 1065.625 C-233.97205566 1065.43035156 -234.64381836 1065.23570313 -235.3359375 1065.03515625 C-236.56441406 1064.68453125 -237.79289063 1064.33390625 -239.05859375 1063.97265625 C-274.33028731 1052.52029126 -294.70498519 1026.77454273 -313.02441406 996.2109375 C-315.09435625 992.77696044 -317.21028631 989.3723544 -319.3359375 985.97265625 C-319.74505371 985.3178125 -320.15416992 984.66296875 -320.57568359 983.98828125 C-323.52745409 979.28212382 -326.54947886 974.62445147 -329.5859375 969.97265625 C-334.00269699 963.204517 -338.22133002 956.32840242 -342.3984375 949.41015625 C-347.19354445 941.46885264 -352.12420615 933.66201681 -357.34765625 925.99609375 C-359.3359375 923.03515625 -359.3359375 923.03515625 -360.60546875 920.26171875 C-363.14690121 916.99170407 -366.42495389 916.69113332 -370.3359375 916.03515625 C-373.2630801 915.80059447 -376.15900134 915.80660681 -379.09375 915.859375 C-379.91489288 915.86716476 -380.73603577 915.87495453 -381.58206177 915.88298035 C-390.79959382 915.99965589 -400.00493435 916.39068268 -409.2109375 916.84765625 C-410.10026978 916.89050751 -410.98960205 916.93335876 -411.90588379 916.97750854 C-425.31745166 917.62955494 -438.70319875 918.50470281 -452.0859375 919.59765625 C-452.87256775 919.66159576 -453.659198 919.72553528 -454.46966553 919.79141235 C-464.44042658 920.59658202 -464.44042658 920.59658202 -474.3359375 922.03515625 C-474.58988281 923.0509375 -474.84382812 924.06671875 -475.10546875 925.11328125 C-475.79296875 927.86328125 -476.48046875 930.61328125 -477.16796875 933.36328125 C-477.35157959 934.09861084 -477.53519043 934.83394043 -477.72436523 935.59155273 C-478.16232763 937.34147911 -478.60215747 939.09093853 -479.04321289 940.84008789 C-480.55584573 946.85288919 -482.01331073 952.87563228 -483.42724609 958.91235352 C-492.04270146 995.47116632 -492.04270146 995.47116632 -501.3359375 1012.03515625 C-501.9134375 1013.10121094 -502.4909375 1014.16726563 -503.0859375 1015.265625 C-521.61196147 1048.4152003 -554.57629412 1074.89354689 -590.96875 1085.85546875 C-597.66959353 1087.73624991 -604.44955259 1089.03702538 -611.3359375 1090.03515625 C-611.98167725 1090.12941895 -612.62741699 1090.22368164 -613.29272461 1090.32080078 C-646.50273099 1094.6255877 -679.89365575 1089.39065957 -707.046875 1068.93945312 C-709.87959235 1066.71595555 -712.62706747 1064.40743706 -715.3359375 1062.03515625 C-716.54636719 1060.97748047 -716.54636719 1060.97748047 -717.78125 1059.8984375 C-726.99736383 1051.22736266 -734.40426951 1040.46316256 -740.80639648 1029.60864258 C-743.3693509 1025.29641552 -746.07482844 1021.07583973 -748.7734375 1016.84765625 C-749.37687988 1015.90059814 -749.98032227 1014.95354004 -750.60205078 1013.9777832 C-755.54048386 1006.24421483 -760.54713927 998.5563291 -765.57226562 990.87890625 C-771.01065041 982.56071356 -776.37171473 974.19426396 -781.70654297 965.80932617 C-783.57448811 962.87902067 -785.45225702 959.95536958 -787.3359375 957.03515625 C-788.02059082 955.96958496 -788.70524414 954.90401367 -789.41064453 953.80615234 C-790.44294189 952.22374756 -790.44294189 952.22374756 -791.49609375 950.609375 C-792.11234619 949.66022217 -792.72859863 948.71106934 -793.36352539 947.7331543 C-797.00275674 942.7551687 -799.87812149 939.62138852 -806.0234375 938.47265625 C-807.16683594 938.23933594 -808.31023437 938.00601563 -809.48828125 937.765625 C-810.75800781 937.52457031 -812.02773438 937.28351562 -813.3359375 937.03515625 C-825.69950014 934.6654493 -836.91642919 931.37911209 -848.3359375 926.03515625 C-848.98691406 925.73625488 -849.63789062 925.43735352 -850.30859375 925.12939453 C-872.05019968 914.97782146 -886.53900631 897.31048099 -898.93847656 877.28564453 C-900.35554269 875.00358381 -901.79179913 872.73476012 -903.234375 870.46875 C-912.27941173 856.2504353 -921.24614722 841.97128351 -929.8359375 827.47265625 C-933.78660548 820.81668916 -938.00626835 814.34848402 -942.24682617 807.87451172 C-949.21275712 797.21239318 -955.85263041 786.34980532 -962.5078125 775.4921875 C-963.13171875 774.47511719 -963.755625 773.45804688 -964.3984375 772.41015625 C-965.00816406 771.41242187 -965.61789062 770.4146875 -966.24609375 769.38671875 C-967.87299745 766.77759094 -969.52714293 764.19586564 -971.20703125 761.62109375 C-981.30683557 746.07216666 -988.67766432 731.00849353 -993.3359375 713.03515625 C-993.60204834 712.16721436 -993.60204834 712.16721436 -993.87353516 711.28173828 C-994.53615062 708.06242068 -994.57875092 704.85264517 -994.64453125 701.578125 C-994.65983887 700.84675323 -994.67514648 700.11538147 -994.69091797 699.36184692 C-994.98513944 682.05737532 -994.31417296 666.48779312 -988.3359375 650.03515625 C-988.06861816 649.26236328 -987.80129883 648.48957031 -987.52587891 647.69335938 C-974.56695568 610.74968873 -943.91162769 581.7278411 -909.1953125 564.99609375 C-900.81357762 561.11482192 -892.31217486 558.23118033 -883.3359375 556.03515625 C-882.69854141 555.87465286 -882.06114532 555.71414948 -881.4044342 555.54878235 C-865.36404145 551.6074399 -849.12497423 550.86812882 -832.70269775 550.02282715 C-826.9212149 549.72391615 -821.14081158 549.40665788 -815.36095619 549.07788467 C-813.36563921 548.96756579 -811.36972881 548.86815066 -809.37382507 548.76901245 C-803.40820102 548.4402769 -797.97836472 548.0588138 -792.3359375 546.03515625 C-793.68031551 542.35453159 -795.33786908 539.30716059 -797.5390625 536.0703125 C-798.18230469 535.11721191 -798.82554687 534.16411133 -799.48828125 533.18212891 C-800.18050781 532.16425293 -800.87273437 531.14637695 -801.5859375 530.09765625 C-803.05122352 527.92044379 -804.51473129 525.74203361 -805.9765625 523.5625 C-806.34599976 523.0118689 -806.71543701 522.46123779 -807.09606934 521.8939209 C-819.98734079 502.64286093 -832.01838598 482.79914277 -844.00390625 462.9765625 C-849.48881372 453.90879629 -855.01857187 444.89425865 -860.8359375 436.03515625 C-867.34284406 426.1252465 -873.5127986 416.02618119 -879.625 405.86914062 C-881.30939397 403.07912276 -883.00821371 400.29839238 -884.7109375 397.51953125 C-903.44532384 366.84299655 -910.1320525 335.30326259 -901.84814453 299.95361328 C-892.48183673 264.67475363 -866.71471129 232.95492901 -835.60302734 214.40576172 C-823.94387643 207.66983132 -812.45504314 201.365035 -799.3359375 198.03515625 C-797.79873047 197.6175 -797.79873047 197.6175 -796.23046875 197.19140625 C-774.46268948 191.88865856 -751.45562626 191.34593247 -729.16229248 190.03320312 C-725.67170859 189.82634763 -722.18157025 189.61224251 -718.69140625 189.3984375 C-714.74793085 189.15687338 -710.80441293 188.91628825 -706.86053467 188.68136597 C-698.68073149 188.19235371 -690.50829683 187.63566706 -682.3359375 187.03515625 C-682.20950867 185.88422989 -682.08307983 184.73330353 -681.95281982 183.54750061 C-681.41014679 179.22626457 -680.50424846 175.06337533 -679.46582031 170.83764648 C-679.27863434 170.06077988 -679.09144836 169.28391327 -678.89859009 168.48350525 C-678.28332924 165.93578503 -677.66151099 163.38972294 -677.0390625 160.84375 C-676.60385797 159.05270836 -676.16886408 157.26161552 -675.73406982 155.47047424 C-674.8224884 151.72004885 -673.90749384 147.9704761 -672.99023438 144.22143555 C-671.82530728 139.45842764 -670.6701603 134.69311107 -669.51781082 129.92704678 C-668.62141876 126.22549727 -667.71903954 122.52542589 -666.81502533 118.82573128 C-666.38733643 117.07185615 -665.96158158 115.31750805 -665.53794098 113.56265068 C-658.60370995 84.87791922 -658.60370995 84.87791922 -651.6484375 72.91015625 C-651.22054932 72.15863281 -650.79266113 71.40710938 -650.35180664 70.6328125 C-643.99520944 59.72450611 -636.00734023 50.18588275 -627.3359375 41.03515625 C-626.49417969 40.14054687 -625.65242188 39.2459375 -624.78515625 38.32421875 C-599.58700902 12.28734882 -562.78887236 -4.75325776 -526.3359375 -5.96484375 C-525.23765625 -6.00480469 -524.139375 -6.04476562 -523.0078125 -6.0859375 C-490.14330385 -6.68029564 -460.74058108 1.80078917 -435.3359375 23.03515625 C-434.65917969 23.56496094 -433.98242188 24.09476563 -433.28515625 24.640625 C-421.61441264 34.11287182 -414.37978249 47.62874521 -406.78125 60.32421875 C-403.8761835 65.17027391 -400.87063761 69.93515983 -397.7734375 74.66015625 C-390.0892898 86.41544073 -382.78617584 98.40742921 -375.4453125 110.37890625 C-363.49246722 129.95685783 -363.49246722 129.95685783 -351.07348633 149.24023438 C-349.73298581 151.39648699 -348.5899727 153.48769562 -347.46362305 155.75195312 C-343.74666733 163.00688251 -343.74666733 163.00688251 -337.01147461 167.18261719 C-332.92673417 167.50055414 -329.09634622 167.35739952 -325.0234375 167.03515625 C-323.52849698 166.96898497 -322.03326879 166.90905363 -320.5378418 166.85498047 C-316.59742543 166.69528987 -312.66694155 166.44953028 -308.7322998 166.18591309 C-304.79272982 165.93807197 -300.84977774 165.77612154 -296.90625 165.60546875 C-280.35015114 164.85354336 -263.83114482 163.64361008 -247.3359375 162.03515625 C-247.06523438 160.80667969 -246.79453125 159.57820312 -246.515625 158.3125 C-244.446807 149.01004 -242.26351224 139.73388062 -240.07905579 130.45802307 C-239.02270967 125.96979858 -237.97389789 121.47991336 -236.93212891 116.98828125 C-235.6511622 111.46763933 -234.35728832 105.95013121 -233.05682373 100.43405151 C-232.53989388 98.23247808 -232.02698901 96.02995518 -231.51837158 93.82644653 C-227.91207433 78.22124387 -223.73821145 63.64393624 -216.0859375 49.47265625 C-215.70735596 48.76850586 -215.32877441 48.06435547 -214.9387207 47.33886719 C-195.53189093 12.07683627 -161.75281141 -12.32647737 -123.5859375 -23.71484375 C-117.23017981 -25.54632048 -110.90045297 -27.08273698 -104.3359375 -27.96484375 C-103.5521875 -28.07570313 -102.7684375 -28.1865625 -101.9609375 -28.30078125 C-65.6952841 -32.49399742 -27.57713392 -24.98116325 0 0 Z M-158.56469727 56.22387695 C-165.31415209 64.51731675 -169.65512591 73.69647468 -172.25390625 84.04296875 C-172.42814621 84.73360413 -172.60238617 85.4242395 -172.78190613 86.13580322 C-173.36913021 88.47563318 -173.94652342 90.81776442 -174.5234375 93.16015625 C-174.72825745 93.98187317 -174.93307739 94.80359009 -175.144104 95.65020752 C-178.37700249 108.62551819 -181.4163945 121.64371032 -184.41015625 134.67578125 C-184.7675069 136.22904028 -185.12488307 137.78229344 -185.48228455 139.33554077 C-187.09395384 146.34468574 -188.70040555 153.35488223 -190.28608799 160.36995697 C-190.95766628 163.33426914 -191.63573619 166.29707327 -192.31511879 169.25960541 C-192.63118698 170.64490006 -192.944375 172.03085566 -193.25438499 173.41751862 C-196.17725079 186.48382227 -199.07424148 197.95857899 -210.140625 206.4140625 C-220.85759856 212.64646558 -236.79781901 211.57679007 -248.91015625 212.25390625 C-250.68637887 212.35778727 -252.46256746 212.46225169 -254.23872375 212.56726074 C-258.89190104 212.84109172 -263.54543106 213.108331 -268.19909668 213.37371826 C-275.57860303 213.79552736 -282.95758234 214.22649401 -290.33649445 214.65855789 C-292.13356719 214.76367109 -293.93066092 214.86842604 -295.72777557 214.97282028 C-306.67746425 215.60979783 -317.61518659 216.31913657 -328.55078125 217.16796875 C-337.45172897 217.85785158 -346.28234819 218.29153898 -355.2109375 218.41015625 C-366.62856895 218.62655781 -378.00841933 219.22477141 -389.40234375 219.984375 C-390.06995224 220.028825 -390.73756073 220.07327499 -391.42539978 220.11907196 C-397.54233166 220.52801299 -403.65865836 220.94528343 -409.77362061 221.38275146 C-435.31738969 223.2093765 -435.31738969 223.2093765 -446.18359375 223.40625 C-447.27238075 223.44553368 -447.27238075 223.44553368 -448.38316345 223.48561096 C-455.17187171 223.51298784 -460.1276576 220.94899883 -465.1484375 216.59765625 C-471.23556734 209.46701843 -472.03447232 203.18415707 -471.3359375 194.03515625 C-470.55824123 189.74691282 -469.52908416 185.54312777 -468.4302063 181.32653809 C-467.49761205 177.74644659 -466.60852587 174.15540118 -465.7109375 170.56640625 C-465.52008072 169.80873962 -465.32922394 169.051073 -465.13258362 168.27044678 C-462.75653743 158.80610774 -460.58122607 149.29553638 -458.3984375 139.78515625 C-458.00538665 138.07973026 -457.61224113 136.37432609 -457.21899414 134.66894531 C-456.85285432 133.07751376 -456.48687934 131.48604426 -456.12109375 129.89453125 C-455.9547644 129.17197144 -455.78843506 128.44941162 -455.61706543 127.70495605 C-451.30000841 108.84919411 -452.51046383 91.8765097 -462.6484375 75.03515625 C-471.47169115 62.41945147 -481.85623212 53.48370518 -496.3359375 48.03515625 C-497.01156738 47.77331543 -497.68719727 47.51147461 -498.38330078 47.24169922 C-505.9556726 44.60613263 -513.25606529 44.58877654 -521.2109375 44.66015625 C-522.49613281 44.64855469 -523.78132813 44.63695312 -525.10546875 44.625 C-536.2723308 44.65901075 -546.18678597 46.63810885 -556.3359375 51.28515625 C-557.01108398 51.5903418 -557.68623047 51.89552734 -558.38183594 52.20996094 C-580.31621216 62.31036229 -597.36319006 78.23471407 -605.97834778 101.11325073 C-609.34132576 110.40780919 -611.3687218 120.03064907 -613.5234375 129.66015625 C-614.22944737 132.7551665 -614.93947024 135.84924117 -615.64944458 138.94334412 C-616.13746564 141.07192076 -616.62417136 143.20079937 -617.10958862 145.32997131 C-619.53936499 155.97960907 -622.06845384 166.60477211 -624.61709595 177.22650146 C-625.31932771 180.15342611 -626.01960758 183.08081178 -626.71948242 186.00830078 C-627.74449432 190.29293177 -628.77600375 194.57595179 -629.81161499 198.85803223 C-630.28563923 200.82630471 -630.7522689 202.79635445 -631.21801758 204.76660156 C-633.56409006 214.52349858 -636.39780353 223.81409443 -644.91796875 229.8515625 C-652.05055652 233.34295845 -659.3811709 234.71799217 -667.21484375 235.625 C-668.25242325 235.7493895 -669.29000275 235.87377899 -670.35902405 236.00193787 C-681.4691728 237.26765101 -692.60360297 237.89238221 -703.769104 238.42868042 C-707.36726668 238.60218061 -710.96462375 238.7879577 -714.56201172 238.97680664 C-723.28580358 239.43305496 -732.01019602 239.87646941 -740.73583984 240.29589844 C-773.04825918 241.61466657 -773.04825918 241.61466657 -803.3359375 252.03515625 C-804.68365234 252.72931641 -804.68365234 252.72931641 -806.05859375 253.4375 C-812.62089114 257.09899823 -817.92535752 261.86300861 -823.3359375 267.03515625 C-823.95210937 267.5765625 -824.56828125 268.11796875 -825.203125 268.67578125 C-839.84012024 282.03119626 -847.91975556 303.22702537 -849.6484375 322.5234375 C-850.19909359 337.71810409 -845.7974128 352.26452996 -836.2109375 364.16015625 C-825.61119933 375.50210803 -809.13404768 385.88202139 -793.34893799 387.30429077 C-790.03210317 387.39654151 -786.72807978 387.39886687 -783.41015625 387.36328125 C-782.18674026 387.36140808 -780.96332428 387.35953491 -779.70283508 387.35760498 C-777.12014022 387.35090951 -774.53745506 387.33704529 -771.95483398 387.31640625 C-768.07330485 387.28555264 -764.19218601 387.27545327 -760.31054688 387.26953125 C-747.43419963 387.22887301 -734.59702493 386.99097011 -721.74047852 386.26342773 C-695.28596965 384.78989213 -695.28596965 384.78989213 -686.3359375 392.03515625 C-682.21461659 396.30366719 -681.2343906 401.76271223 -681.0234375 407.53515625 C-681.41894717 420.63577187 -685.64493911 434.00072388 -688.61499023 446.71435547 C-689.27226045 449.53011374 -689.92444529 452.3470166 -690.57617188 455.1640625 C-692.71789801 464.38230839 -694.96307815 473.54949328 -697.44458008 482.68261719 C-698.83066243 487.89589651 -700.02455202 493.14848665 -701.2109375 498.41015625 C-703.91289255 510.25102623 -706.7217441 522.06339358 -709.57275391 533.86914062 C-710.36556869 537.15807924 -711.15408761 540.44802283 -711.94140625 543.73828125 C-712.20630859 544.84486084 -712.47121094 545.95144043 -712.74414062 547.09155273 C-713.24448663 549.18212751 -713.74451424 551.27277852 -714.24414062 553.36352539 C-714.70462319 555.28526619 -715.1675484 557.20642352 -715.63305664 559.12695312 C-716.12388127 561.15776345 -716.60681816 563.19048924 -717.08374023 565.22460938 C-719.4693821 575.18713564 -722.41359991 584.05631295 -731.35546875 589.89453125 C-743.38948092 596.82536272 -758.05710258 596.40906541 -771.62796402 597.08090019 C-774.4851521 597.22266487 -777.34180058 597.37281123 -780.19845581 597.5249176 C-787.30143912 597.9016161 -794.40503801 598.2660276 -801.50878906 598.62792969 C-831.13726094 600.05469507 -831.13726094 600.05469507 -860.6875 602.5625 C-861.77773468 602.67782578 -862.86796936 602.79315155 -863.99124146 602.91197205 C-884.29497755 605.25641149 -901.20765872 614.54615546 -915.3359375 629.03515625 C-916.25503906 629.95683594 -917.17414063 630.87851562 -918.12109375 631.828125 C-923.53037242 637.47639978 -927.28986557 642.85345588 -930.3359375 650.03515625 C-930.86960937 651.14310547 -930.86960937 651.14310547 -931.4140625 652.2734375 C-939.37136078 668.98970216 -940.92000807 688.55770451 -935.66796875 706.30078125 C-933.61281434 712.06244582 -930.82385305 717.02706512 -927.3359375 722.03515625 C-926.89765625 722.67582031 -926.459375 723.31648437 -926.0078125 723.9765625 C-916.67096904 736.09758518 -902.21159757 743.48808723 -887.3359375 746.03515625 C-885.7987266 746.11102489 -884.25866912 746.1406363 -882.71963501 746.12849426 C-881.82256332 746.12408829 -880.92549164 746.11968231 -880.00123596 746.11514282 C-879.02968063 746.10526337 -878.05812531 746.09538391 -877.05712891 746.08520508 C-876.02401077 746.07892593 -874.99089264 746.07264679 -873.9264679 746.06617737 C-871.68605868 746.05234223 -869.44566165 746.03641006 -867.2052803 746.01862526 C-863.65763769 745.99196307 -860.11005764 745.97410829 -856.56234741 745.95915222 C-846.47634577 745.91642276 -836.39046835 745.86870963 -826.3046875 745.78833008 C-820.13274293 745.73978343 -813.96097095 745.71080517 -807.78886032 745.6945858 C-805.43892609 745.68469278 -803.0890107 745.66748962 -800.73918533 745.64280128 C-797.45042171 745.60901549 -794.16245097 745.60016694 -790.87353516 745.59692383 C-789.90602829 745.58097168 -788.93852142 745.56501953 -787.94169617 745.54858398 C-781.86556675 745.57586798 -778.31724363 746.49830669 -773.3359375 750.03515625 C-769.53056349 754.33688339 -766.29816997 760.33179216 -766.35742188 766.1418457 C-767.06282065 775.10512442 -769.14341709 783.68555269 -771.2109375 792.41015625 C-771.56708517 793.93603961 -771.92255762 795.46208074 -772.27734375 796.98828125 C-773.57956696 802.57933027 -774.88809007 808.16871654 -776.22753906 813.75097656 C-780.927244 833.54912605 -781.99578467 854.20605713 -771.2109375 872.3515625 C-761.47134074 886.29136036 -748.71217246 896.01254811 -732.3359375 901.03515625 C-731.541875 901.28007813 -730.7478125 901.525 -729.9296875 901.77734375 C-708.15221998 907.22171063 -685.35456997 900.41839669 -666.34375 889.859375 C-662.03588175 887.24668088 -658.18451851 884.27406106 -654.3359375 881.03515625 C-653.75714844 880.60074219 -653.17835938 880.16632812 -652.58203125 879.71875 C-639.86375948 869.83331835 -632.08256186 854.55568778 -627.578125 839.43359375 C-627.32435089 838.58344193 -627.07057678 837.7332901 -626.80911255 836.8573761 C-623.28502131 824.75666055 -620.51686814 812.45889866 -617.66723633 800.18603516 C-605.02707146 745.79748198 -605.02707146 745.79748198 -591.3359375 737.03515625 C-587.7545501 734.85586096 -584.12912673 734.43262437 -580.03588867 733.99755859 C-578.92252152 733.87384919 -578.92252152 733.87384919 -577.7866621 733.74764061 C-567.59667833 732.674431 -557.36565169 732.17886564 -547.13671875 731.63671875 C-544.83366535 731.51081338 -542.53063144 731.38455114 -540.22761536 731.25796509 C-533.26915335 730.87785574 -526.31017776 730.5078992 -519.35099125 730.14131355 C-517.3173372 730.03417635 -515.28369445 729.9268265 -513.25005341 729.81944275 C-492.85042991 728.74287577 -472.44959856 727.68995958 -452.04846191 726.64251709 C-440.70066196 726.059875 -429.35292331 725.4760448 -418.00527459 724.89046443 C-413.79514538 724.67326812 -409.58497099 724.45697679 -405.3747589 724.24139327 C-392.35676407 723.57425746 -379.34346021 722.88305393 -366.3359375 722.03515625 C-346.22349124 720.83824094 -346.22349124 720.83824094 -339.2265625 726.0859375 C-334.15268777 731.31706041 -332.07805275 736.71727496 -331.7734375 743.97265625 C-332.26182519 755.06419767 -335.16705553 765.93650313 -338.16015625 776.578125 C-341.85201966 790.0622255 -343.99746666 802.41212029 -343.8984375 816.34765625 C-343.89318054 817.36996841 -343.89318054 817.36996841 -343.88781738 818.41293335 C-343.71953829 835.65396293 -338.20209659 851.28916629 -325.90234375 863.82421875 C-317.05398023 871.44700985 -307.81034731 876.4821702 -296.3359375 879.03515625 C-295.32273437 879.26976562 -294.30953125 879.504375 -293.265625 879.74609375 C-271.92928795 883.86363248 -247.11189818 879.12826629 -229.16015625 867.046875 C-228.22816406 866.38300781 -227.29617188 865.71914063 -226.3359375 865.03515625 C-225.80436035 864.65697754 -225.2727832 864.27879883 -224.72509766 863.88916016 C-201.55578489 847.23012163 -193.44812186 825.95770966 -187.0859375 799.16015625 C-186.60798899 797.17847304 -186.12938212 795.19694851 -185.65014648 793.21557617 C-183.28819046 783.41383708 -180.9932946 773.59783839 -178.76171875 763.765625 C-178.55958771 762.87770264 -178.35745667 761.98978027 -178.14920044 761.07495117 C-177.1965598 756.88548587 -176.25340766 752.69434479 -175.32910156 748.49853516 C-169.73058238 723.4056341 -169.73058238 723.4056341 -159.8671875 716.2421875 C-153.39040817 712.23229912 -148.72002455 710.96472992 -141.109375 710.49438477 C-140.02481018 710.42583282 -140.02481018 710.42583282 -138.91833496 710.355896 C-136.51607936 710.2050011 -134.11353023 710.05948303 -131.7109375 709.9140625 C-130.00925917 709.80847431 -128.30759932 709.70258784 -126.60595703 709.59642029 C-123.0147844 709.37312548 -119.42347283 709.15227554 -115.83203125 708.93334961 C-111.34568973 708.65985518 -106.8596102 708.38234665 -102.37362099 708.10313892 C-87.59966785 707.18413932 -72.8258646 706.26662184 -58.04443359 705.4753418 C-57.22055271 705.43095757 -56.39667183 705.38657335 -55.54782486 705.34084415 C-51.669258 705.13234422 -47.79056198 704.92788147 -43.91137695 704.73121643 C-15.98769744 703.2763693 7.68348555 696.01839676 27.59765625 675.33984375 C41.66498912 659.65037986 50.28711305 642.62932224 50.1640625 621.16015625 C50.15656982 619.44107056 50.15656982 619.44107056 50.14892578 617.68725586 C49.97107479 609.07252186 48.86279499 602.6509423 44.6640625 595.03515625 C44.24125 594.11476563 43.8184375 593.194375 43.3828125 592.24609375 C35.48609674 575.94763971 20.41324102 564.24890797 3.6640625 558.03515625 C-1.6713364 556.87016433 -6.90703663 556.8742379 -12.33984375 556.8671875 C-13.31942551 556.86308868 -14.29900726 556.85898987 -15.30827332 556.85476685 C-18.50503005 556.84517731 -21.7016684 556.84524609 -24.8984375 556.84765625 C-25.98829956 556.84726349 -27.07816162 556.84687073 -28.2010498 556.84646606 C-51.72543151 556.85660105 -75.14985401 557.78956894 -98.58129883 559.92089844 C-105.48234313 560.20714223 -110.97163315 558.42413254 -116.3359375 554.03515625 C-121.27347794 548.98539898 -123.33220035 544.51444419 -123.33984375 537.3984375 C-123.21320465 536.0461008 -123.06460751 534.69570653 -122.8984375 533.34765625 C-122.81062012 532.59363525 -122.72280273 531.83961426 -122.63232422 531.06274414 C-121.3187417 521.26504362 -118.69366769 511.7337894 -116.1875 502.1875 C-114.28315664 494.9256988 -112.56585733 487.62665471 -110.86669922 480.31484985 C-109.37640167 473.91381966 -107.8632868 467.51809919 -106.35375977 461.12158203 C-105.96438466 459.47005496 -105.57572166 457.81835985 -105.18774414 456.16650391 C-103.22534148 447.81337666 -101.23413574 439.4888959 -98.92407227 431.22363281 C-98.15764156 428.37170884 -97.60428735 425.50411792 -97.0859375 422.59765625 C-95.60055458 414.92581148 -93.73667621 407.36388211 -91.8359375 399.78515625 C-91.53913086 398.60123291 -91.24232422 397.41730957 -90.93652344 396.19750977 C-90.08001991 392.80730186 -89.21117057 389.42057298 -88.3359375 386.03515625 C-88.0788501 385.02807617 -87.8217627 384.02099609 -87.55688477 382.98339844 C-84.62767807 371.80940671 -81.09886166 361.73912759 -70.9609375 355.26953125 C-63.42018254 351.723581 -55.91465288 351.49220908 -47.69140625 351.03515625 C-46.33548298 350.95439215 -44.97959774 350.87298723 -43.62374878 350.79098511 C-40.00515137 350.57425077 -36.38604501 350.36756606 -32.76674271 350.16298676 C-29.76768466 349.9920911 -26.7690123 349.81489511 -23.77031994 349.63771629 C-4.71876997 348.51325408 14.33714427 347.47230148 33.4074707 346.71875 C41.23679226 346.39673071 49.01631427 345.8834308 56.8125 345.08203125 C57.58484482 345.00371063 58.35718964 344.92539001 59.15293884 344.84469604 C81.98844224 342.35519124 103.27524706 331.29083663 117.95703125 313.46533203 C132.02288995 295.92733384 140.68409629 276.18507654 138.2734375 253.33203125 C135.83194991 235.96339207 127.52278867 222.19291107 114.1953125 210.953125 C99.76316959 200.19930423 81.79685276 194.83084319 63.9140625 194.84765625 C63.14280029 194.84701172 62.37153809 194.84636719 61.5769043 194.84570312 C55.94844215 194.89387046 50.38897471 195.27194776 44.78271484 195.75390625 C31.1816311 196.91093243 17.64546133 197.28194725 3.99716187 197.3347168 C1.86662182 197.34331005 -0.26390414 197.35694283 -2.39437866 197.37573242 C-5.41417733 197.39958358 -8.43324872 197.40228868 -11.453125 197.3984375 C-12.36140549 197.40756668 -13.26968597 197.41669586 -14.20549011 197.42610168 C-20.84568185 197.37813551 -25.08345679 196.18287042 -30.0234375 191.47265625 C-36.12478542 183.41650754 -35.57337402 174.59235283 -34.3359375 165.03515625 C-33.40845227 160.17315584 -32.23850477 155.38815138 -31.02734375 150.58984375 C-30.69626519 149.2449651 -30.36620353 147.89983576 -30.03709412 146.55447388 C-29.17703853 143.04836659 -28.30537052 139.54526267 -27.43041992 136.04284668 C-26.0313829 130.43417853 -24.65038491 124.82104456 -23.26948357 119.20788956 C-22.79128407 117.27129864 -22.30765672 115.33605055 -21.8238678 113.40084839 C-15.76727381 88.9548825 -16.07467198 68.09735194 -29.3359375 46.03515625 C-37.14927418 33.6582778 -54.28512037 25.60333716 -67.8984375 22.16015625 C-102.7840244 15.75417458 -136.07870555 29.41201612 -158.56469727 56.22387695 Z " fill="#000000" transform="translate(999.3359375,108.96484375)"/>
<path d="M0 0 C0.68389297 -0.00946655 1.36778595 -0.01893311 2.07240295 -0.02868652 C11.45683565 0.03351642 18.33772273 2.8154151 25.125 9.3125 C28.98059587 13.52675595 28.99230893 16.45490535 29.0625 22 C29.08828125 23.19109375 29.1140625 24.3821875 29.140625 25.609375 C28.64970543 38.06270215 24.55796088 50.7113415 21.57147217 62.75314331 C20.34618634 67.69557331 19.13276475 72.64092075 17.91796875 77.5859375 C17.66408386 78.6184111 17.41019897 79.6508847 17.14862061 80.71464539 C14.28747906 92.36246177 11.48317279 104.02382323 8.6875 115.6875 C8.43753265 116.73015015 8.18756531 117.77280029 7.93002319 118.8470459 C4.4987284 133.16479083 1.08383512 147.48642215 -2.3125 161.8125 C-2.49895081 162.59841522 -2.68540161 163.38433044 -2.87750244 164.19406128 C-3.40087704 166.40132784 -3.9232107 168.60883833 -4.4453125 170.81640625 C-4.60445633 171.48662308 -4.76360016 172.1568399 -4.92756653 172.84736633 C-5.75874512 176.3640498 -6.53346282 179.88655252 -7.26171875 183.42578125 C-9.57893125 192.99772657 -15.02859867 200.64169265 -22.84765625 206.4921875 C-35.98383938 214.40276811 -58.48951895 212.26040105 -73.25 213.1875 C-74.59927492 213.27372707 -75.94853833 213.36013439 -77.29779053 213.44671631 C-101.00941989 214.96496147 -124.73166926 216.17443766 -148.46899414 217.21069336 C-160.34696139 217.7357144 -172.19891099 218.35979993 -184.0546875 219.26171875 C-197.9268 220.30765869 -211.79925607 220.87190785 -225.70263672 221.31030273 C-229.06621812 221.41766862 -232.42929189 221.53334924 -235.79242706 221.65345287 C-239.08015326 221.76903859 -242.36821143 221.87420248 -245.65625 221.98046875 C-246.84077759 222.02310349 -248.02530518 222.06573822 -249.24572754 222.10966492 C-270.89754292 222.75466147 -270.89754292 222.75466147 -278.1875 217.25 C-283.95157906 211.50097076 -284.70870817 206.07273212 -284.76806641 198.24145508 C-284.55111697 189.93506142 -282.73723789 182.24444302 -280.68359375 174.2265625 C-280.32138246 172.77852045 -279.96032509 171.33018934 -279.6003418 169.8815918 C-278.84761014 166.85639059 -278.08995192 163.83248711 -277.3288269 160.80938721 C-275.67702843 154.23203908 -274.08732825 147.63970169 -272.49431038 141.04792404 C-271.60972947 137.39063326 -270.72067032 133.73443144 -269.83203125 130.078125 C-269.47475469 128.60742611 -269.11749558 127.13672299 -268.76025391 125.66601562 C-268.22385878 123.4579259 -267.6874604 121.24983698 -267.15106201 119.04174805 C-265.90270759 113.90285237 -264.65444348 108.76393477 -263.40625 103.625 C-263.23210886 102.90808046 -263.05796772 102.19116093 -262.87854958 101.45251656 C-260.90692007 93.3352693 -258.93675925 85.21766857 -256.96948242 77.09936523 C-256.78828669 76.35167185 -256.60709095 75.60397846 -256.42040443 74.8336277 C-255.55856542 71.27713028 -254.69694532 67.72058005 -253.83569336 64.16394043 C-244.22019189 24.474878 -244.22019189 24.474878 -232.1875 16.25 C-225.69209386 12.40764707 -218.60978578 11.84781307 -211.24609375 11.2421875 C-210.25156693 11.15835815 -209.2570401 11.07452881 -208.2323761 10.98815918 C-195.16613075 9.94070876 -182.07078323 9.40904071 -168.9768486 8.84179688 C-163.23758998 8.59113848 -157.49889223 8.32770143 -151.760149 8.06555176 C-150.35093936 8.00119109 -148.94172282 7.93698129 -147.53249931 7.8729248 C-137.39095999 7.41144121 -127.25693074 6.88976874 -117.125 6.25 C-106.45450571 5.57694463 -95.7816722 5.02861307 -85.1015625 4.53125 C-84.41784388 4.49930542 -83.73412525 4.46736084 -83.02968788 4.43444824 C-76.75273176 4.1413036 -70.47574698 3.84886692 -64.19821167 3.56835938 C-49.14649038 2.89449323 -34.12116412 2.12004927 -19.10194397 0.90686035 C-12.7308779 0.39871028 -6.39137794 0.06932418 0 0 Z " fill="#000000" transform="translate(724.1875,470.75)"/>
</svg>
